<?xml version="1.0" ?><!DOCTYPE svg  PUBLIC '-//W3C//DTD SVG 1.1//EN'  'http://www.w3.org/Graphics/SVG/1.1/DTD/svg11.dtd'><svg enable-background="new 0 0 128 128" height="128px" version="1.1" viewBox="0 0 128 128" width="128px" xml:space="preserve" xmlns="http://www.w3.org/2000/svg" xmlns:xlink="http://www.w3.org/1999/xlink"><g id="Layer_2"/><g id="Layer_1"><g><path d="    M97.463,52.172c0,0-9.43-2.45-13.36,3.521c-1.846,2.804-3.012,9.464-5.813,11.092c-7.052,4.09-16.674,1.235-18.306-0.162    c-2.282-1.957-1.722-16.188-15.562-19.189c-8.759-1.9-14.628-2.18-17.989-1.426c-5.861,1.314-5.212,7.312-1.604,8.936    c4.546,2.048,6.313,6.633,6.802,10.542c0.489,3.91,1.196,12.055,1.196,12.055s47.717,0,52.226,0c4.51,0,5.683-3.547,5.683-3.547    L97.463,52.172z" fill="none" stroke="#231F20" stroke-linecap="round" stroke-linejoin="round" stroke-miterlimit="10" stroke-width="5"/><path d="    M20.223,91.88c0,0,81.992,0,83.758,0s6.41-1.321,6.41-6.854c0-5.531-4.32-6.399-6.927-6.399" fill="none" stroke="#231F20" stroke-linecap="round" stroke-linejoin="round" stroke-miterlimit="10" stroke-width="5"/><line fill="none" stroke="#231F20" stroke-linecap="round" stroke-linejoin="round" stroke-miterlimit="10" stroke-width="5" x1="44.341" x2="40.43" y1="78.191" y2="91.88"/><line fill="none" stroke="#231F20" stroke-linecap="round" stroke-linejoin="round" stroke-miterlimit="10" stroke-width="5" x1="79.538" x2="82.715" y1="78.191" y2="91.88"/></g></g></svg>